<svg width="60" height="60" viewBox="0 0 60 60" fill="none" xmlns="http://www.w3.org/2000/svg">
<path d="M32.5 56.875H12.5C6.45 56.875 3.125 53.55 3.125 47.5V27.5C3.125 21.45 6.45 18.125 12.5 18.125H25C26.025 18.125 26.875 18.975 26.875 20V47.5C26.875 51.45 28.55 53.125 32.5 53.125C33.525 53.125 34.375 53.975 34.375 55C34.375 56.025 33.525 56.875 32.5 56.875ZM12.5 21.875C8.55 21.875 6.875 23.55 6.875 27.5V47.5C6.875 51.45 8.55 53.125 12.5 53.125H24.5C23.6 51.65 23.125 49.775 23.125 47.5V21.875H12.5Z" fill="#0369A1"/>
<path d="M25 21.875H12.5C11.475 21.875 10.625 21.025 10.625 20V15C10.625 11.2 13.7 8.125 17.5 8.125H25.275C25.85 8.125 26.4 8.39995 26.75 8.84995C27.1 9.32495 27.225 9.92501 27.075 10.475C26.925 11.025 26.875 11.65 26.875 12.5V20C26.875 21.025 26.025 21.875 25 21.875ZM14.375 18.125H23.125V12.5C23.125 12.275 23.125 12.075 23.125 11.875H17.5C15.775 11.875 14.375 13.275 14.375 15V18.125Z" fill="#0369A1"/>
<path d="M35 34.375C33.975 34.375 33.125 33.525 33.125 32.5V20C33.125 18.975 33.975 18.125 35 18.125C36.025 18.125 36.875 18.975 36.875 20V32.5C36.875 33.525 36.025 34.375 35 34.375Z" fill="#0369A1"/>
<path d="M45 34.375C43.975 34.375 43.125 33.525 43.125 32.5V20C43.125 18.975 43.975 18.125 45 18.125C46.025 18.125 46.875 18.975 46.875 20V32.5C46.875 33.525 46.025 34.375 45 34.375Z" fill="#0369A1"/>
<path d="M45 56.875H35C33.975 56.875 33.125 56.025 33.125 55V45C33.125 42.6 35.1 40.625 37.5 40.625H42.5C44.9 40.625 46.875 42.6 46.875 45V55C46.875 56.025 46.025 56.875 45 56.875ZM36.875 53.125H43.125V45C43.125 44.65 42.85 44.375 42.5 44.375H37.5C37.15 44.375 36.875 44.65 36.875 45V53.125Z" fill="#0369A1"/>
<path d="M15 44.375C13.975 44.375 13.125 43.525 13.125 42.5V32.5C13.125 31.475 13.975 30.625 15 30.625C16.025 30.625 16.875 31.475 16.875 32.5V42.5C16.875 43.525 16.025 44.375 15 44.375Z" fill="#0369A1"/>
<path d="M47.5 56.875H32.5C26.45 56.875 23.125 53.55 23.125 47.5V12.5C23.125 6.45 26.45 3.125 32.5 3.125H47.5C53.55 3.125 56.875 6.45 56.875 12.5V47.5C56.875 53.55 53.55 56.875 47.5 56.875ZM32.5 6.875C28.55 6.875 26.875 8.55 26.875 12.5V47.5C26.875 51.45 28.55 53.125 32.5 53.125H47.5C51.45 53.125 53.125 51.45 53.125 47.5V12.5C53.125 8.55 51.45 6.875 47.5 6.875H32.5Z" fill="#0369A1"/>
</svg>
