<svg width="60" height="60" viewBox="0 0 60 60" fill="none" xmlns="http://www.w3.org/2000/svg">
<path d="M42.25 56.875H17.75C12.45 56.875 8.125 52.55 8.125 47.25V12.75C8.125 7.45002 12.45 3.125 17.75 3.125H42.25C47.55 3.125 51.875 7.45002 51.875 12.75V47.25C51.875 52.55 47.55 56.875 42.25 56.875ZM17.75 6.875C14.525 6.875 11.875 9.50002 11.875 12.75V47.25C11.875 50.475 14.5 53.125 17.75 53.125H42.25C45.475 53.125 48.125 50.5 48.125 47.25V12.75C48.125 9.52502 45.5 6.875 42.25 6.875H17.75Z" fill="#0369A1"/>
<path d="M46.25 34.375H13.75C10.65 34.375 8.125 31.85 8.125 28.75V23.75C8.125 20.65 10.65 18.125 13.75 18.125H46.25C49.35 18.125 51.875 20.65 51.875 23.75V28.75C51.875 31.85 49.35 34.375 46.25 34.375ZM13.75 21.875C12.725 21.875 11.875 22.725 11.875 23.75V28.75C11.875 29.775 12.725 30.625 13.75 30.625H46.25C47.275 30.625 48.125 29.775 48.125 28.75V23.75C48.125 22.725 47.275 21.875 46.25 21.875H13.75Z" fill="#0369A1"/>
<path d="M20 46.8752C19.175 46.8752 18.375 46.5502 17.8 45.9502C17.65 45.8252 17.525 45.6502 17.4 45.4752C17.3 45.3252 17.2 45.1252 17.125 44.9502C17.025 44.7502 16.975 44.5502 16.925 44.3502C16.9 44.1502 16.875 43.9502 16.875 43.7502C16.875 43.5502 16.9 43.3502 16.925 43.1502C16.975 42.9502 17.025 42.7502 17.125 42.5502C17.2 42.3752 17.3 42.1752 17.4 42.0252C17.525 41.8502 17.65 41.6752 17.8 41.5502C18.95 40.3752 21.025 40.3752 22.2 41.5502C22.35 41.6752 22.475 41.8502 22.6 42.0252C22.7 42.1752 22.8 42.3752 22.875 42.5502C22.975 42.7502 23.025 42.9502 23.075 43.1502C23.1 43.3502 23.125 43.5502 23.125 43.7502C23.125 43.9502 23.1 44.1502 23.075 44.3502C23.025 44.5502 22.975 44.7502 22.875 44.9502C22.8 45.1252 22.7 45.3252 22.6 45.4752C22.475 45.6502 22.35 45.8252 22.2 45.9502C21.625 46.5502 20.825 46.8752 20 46.8752Z" fill="#0369A1"/>
<path d="M40 46.8752C39.175 46.8752 38.375 46.5502 37.8 45.9502C37.2 45.3752 36.875 44.5752 36.875 43.7502C36.875 42.9252 37.2 42.1252 37.8 41.5502C38.95 40.3752 41.05 40.3752 42.2 41.5502C42.8 42.1252 43.125 42.9252 43.125 43.7502C43.125 44.5752 42.8 45.3752 42.2 45.9502C41.625 46.5502 40.825 46.8752 40 46.8752Z" fill="#0369A1"/>
<path d="M36.25 14.375H23.75C22.725 14.375 21.875 13.525 21.875 12.5C21.875 11.475 22.725 10.625 23.75 10.625H36.25C37.275 10.625 38.125 11.475 38.125 12.5C38.125 13.525 37.275 14.375 36.25 14.375Z" fill="#0369A1"/>
</svg>
