<svg width="60" height="60" viewBox="0 0 60 60" fill="none" xmlns="http://www.w3.org/2000/svg">
<path d="M55 56.875H5C3.975 56.875 3.125 56.025 3.125 55C3.125 53.975 3.975 53.125 5 53.125H55C56.025 53.125 56.875 53.975 56.875 55C56.875 56.025 56.025 56.875 55 56.875Z" fill="#0369A1"/>
<path d="M52.2254 56.875C51.2004 56.875 50.3504 56.025 50.3504 55V32.5C50.3504 29.4 47.4504 26.875 43.9004 26.875H16.1004C12.5504 26.875 9.65039 29.4 9.65039 32.5V55C9.65039 56.025 8.80039 56.875 7.77539 56.875C6.75039 56.875 5.90039 56.025 5.90039 55V32.5C5.90039 27.325 10.4754 23.125 16.1004 23.125H43.8754C49.5004 23.125 54.0754 27.325 54.0754 32.5V55C54.1004 56.025 53.2504 56.875 52.2254 56.875Z" fill="#0369A1"/>
<path d="M46.1004 26.875C45.0754 26.875 44.2254 26.025 44.2254 25V17.925C44.2254 15.975 42.3504 14.375 40.0754 14.375H19.9504C17.6504 14.375 15.8004 15.975 15.8004 17.925V25C15.8004 26.025 14.9504 26.875 13.9254 26.875C12.9004 26.875 12.0254 26.025 12.0254 25V17.925C12.0254 13.9 15.5754 10.625 19.9254 10.625H40.0504C44.4004 10.625 47.9504 13.9 47.9504 17.925V25C47.9754 26.025 47.1254 26.875 46.1004 26.875Z" fill="#0369A1"/>
<path d="M43.3248 44.3748C40.4248 44.3748 38.0748 42.0248 38.0748 39.1248V38.3498C38.0748 37.5248 37.3998 36.8498 36.5748 36.8498C35.7498 36.8498 35.0748 37.5248 35.0748 38.3498V39.1248C35.0748 42.0248 32.7248 44.3748 29.8248 44.3748C26.9248 44.3748 24.5748 42.0248 24.5748 39.1248V38.3498C24.5748 37.5248 23.8998 36.8498 23.0748 36.8498C22.2498 36.8498 21.5748 37.5248 21.5748 38.3498V39.1248C21.5748 42.0248 19.2248 44.3748 16.3248 44.3748C13.4248 44.3748 11.0748 42.0248 11.0748 39.1248V38.2998C11.0748 37.4998 10.4248 36.8248 9.59976 36.7998H8.67476C7.64976 36.7748 6.79976 35.9248 6.82476 34.8998C6.84976 33.8748 7.67476 33.0498 8.69976 33.0498H8.72476H9.64976C12.4998 33.0998 14.8248 35.4498 14.8248 38.2998V39.1248C14.8248 39.9498 15.4998 40.6248 16.3248 40.6248C17.1498 40.6248 17.8248 39.9498 17.8248 39.1248V38.3498C17.8248 35.4498 20.1748 33.0998 23.0748 33.0998C25.9748 33.0998 28.3248 35.4498 28.3248 38.3498V39.1248C28.3248 39.9498 28.9998 40.6248 29.8248 40.6248C30.6498 40.6248 31.3248 39.9498 31.3248 39.1248V38.3498C31.3248 35.4498 33.6748 33.0998 36.5748 33.0998C39.4748 33.0998 41.8248 35.4498 41.8248 38.3498V39.1248C41.8248 39.9498 42.4998 40.6248 43.3248 40.6248C44.1498 40.6248 44.8248 39.9498 44.8248 39.1248V38.3498C44.8248 35.4498 47.1748 33.0998 50.0748 33.0998H51.1998C52.2248 33.0998 53.0748 33.9498 53.0748 34.9748C53.0748 35.9998 52.2248 36.8498 51.1998 36.8498H50.0748C49.2498 36.8498 48.5748 37.5248 48.5748 38.3498V39.1248C48.5748 42.0248 46.2248 44.3748 43.3248 44.3748Z" fill="#0369A1"/>
<path d="M20 14.375C18.975 14.375 18.125 13.525 18.125 12.5V7.5C18.125 6.475 18.975 5.625 20 5.625C21.025 5.625 21.875 6.475 21.875 7.5V12.5C21.875 13.525 21.025 14.375 20 14.375Z" fill="#0369A1"/>
<path d="M40 14.375C38.975 14.375 38.125 13.525 38.125 12.5V7.5C38.125 6.475 38.975 5.625 40 5.625C41.025 5.625 41.875 6.475 41.875 7.5V12.5C41.875 13.525 41.025 14.375 40 14.375Z" fill="#0369A1"/>
<path d="M30 14.375C28.975 14.375 28.125 13.525 28.125 12.5V5C28.125 3.975 28.975 3.125 30 3.125C31.025 3.125 31.875 3.975 31.875 5V12.5C31.875 13.525 31.025 14.375 30 14.375Z" fill="#0369A1"/>
</svg>
