<svg width="70" height="70" viewBox="0 0 70 70" fill="none" xmlns="http://www.w3.org/2000/svg">
<path d="M64.1673 66.3545H5.83398C4.63815 66.3545 3.64648 65.3628 3.64648 64.167C3.64648 62.9712 4.63815 61.9795 5.83398 61.9795H64.1673C65.3631 61.9795 66.3548 62.9712 66.3548 64.167C66.3548 65.3628 65.3631 66.3545 64.1673 66.3545Z" fill="#E8EAF0"/>
<path d="M41.5625 66.3538H28.4375C27.2417 66.3538 26.25 65.3622 26.25 64.1663V11.6663C26.25 6.64967 29.0208 3.64551 33.6875 3.64551H36.3125C40.9792 3.64551 43.75 6.64967 43.75 11.6663V64.1663C43.75 65.3622 42.7583 66.3538 41.5625 66.3538ZM30.625 61.9788H39.375V11.6663C39.375 8.31217 37.8 8.02051 36.3125 8.02051H33.6875C32.2 8.02051 30.625 8.31217 30.625 11.6663V61.9788Z" fill="#E8EAF0"/>
<path d="M20.4167 66.3538H8.75C7.55417 66.3538 6.5625 65.3622 6.5625 64.1663V29.1663C6.5625 24.1497 9.12917 21.1455 13.4167 21.1455H15.75C20.0375 21.1455 22.6042 24.1497 22.6042 29.1663V64.1663C22.6042 65.3622 21.6125 66.3538 20.4167 66.3538ZM10.9375 61.9788H18.2292V29.1663C18.2292 25.5205 16.625 25.5205 15.75 25.5205H13.4167C12.5417 25.5205 10.9375 25.5205 10.9375 29.1663V61.9788Z" fill="#E8EAF0"/>
<path d="M61.2507 66.3545H49.584C48.3882 66.3545 47.3965 65.3628 47.3965 64.167V43.7503C47.3965 38.7337 49.9632 35.7295 54.2507 35.7295H56.584C60.8715 35.7295 63.4382 38.7337 63.4382 43.7503V64.167C63.4382 65.3628 62.4465 66.3545 61.2507 66.3545ZM51.7715 61.9795H59.0632V43.7503C59.0632 40.1045 57.459 40.1045 56.584 40.1045H54.2507C53.3757 40.1045 51.7715 40.1045 51.7715 43.7503V61.9795Z" fill="#E8EAF0"/>
</svg>
