<svg width="60" height="60" viewBox="0 0 60 60" fill="none" xmlns="http://www.w3.org/2000/svg">
<path d="M33.5004 43.5502H27.2254C23.1254 43.5502 19.8004 40.1002 19.8004 35.8502C19.8004 34.8252 20.6504 33.9752 21.6754 33.9752C22.7004 33.9752 23.5504 34.8252 23.5504 35.8502C23.5504 38.0252 25.2004 39.8002 27.2254 39.8002H33.5004C35.1254 39.8002 36.4754 38.3502 36.4754 36.6002C36.4754 34.4252 35.7004 34.0002 34.4254 33.5502L24.3504 30.0002C22.4004 29.3252 19.7754 27.8752 19.7754 23.4002C19.7754 19.5502 22.8004 16.4502 26.5004 16.4502H32.7754C36.8754 16.4502 40.2004 19.9002 40.2004 24.1502C40.2004 25.1752 39.3504 26.0252 38.3254 26.0252C37.3004 26.0252 36.4504 25.1752 36.4504 24.1502C36.4504 21.9752 34.8004 20.2002 32.7754 20.2002H26.5004C24.8754 20.2002 23.5254 21.6502 23.5254 23.4002C23.5254 25.5752 24.3004 26.0002 25.5754 26.4502L35.6504 30.0002C37.6004 30.6752 40.2254 32.1252 40.2254 36.6002C40.2004 40.4252 37.2004 43.5502 33.5004 43.5502Z" fill="#0369A1"/>
<path d="M30 46.875C28.975 46.875 28.125 46.025 28.125 45V15C28.125 13.975 28.975 13.125 30 13.125C31.025 13.125 31.875 13.975 31.875 15V45C31.875 46.025 31.025 46.875 30 46.875Z" fill="#0369A1"/>
<path d="M37.5 56.875H22.5C8.925 56.875 3.125 51.075 3.125 37.5V22.5C3.125 8.925 8.925 3.125 22.5 3.125H37.5C51.075 3.125 56.875 8.925 56.875 22.5V37.5C56.875 51.075 51.075 56.875 37.5 56.875ZM22.5 6.875C10.975 6.875 6.875 10.975 6.875 22.5V37.5C6.875 49.025 10.975 53.125 22.5 53.125H37.5C49.025 53.125 53.125 49.025 53.125 37.5V22.5C53.125 10.975 49.025 6.875 37.5 6.875H22.5Z" fill="#0369A1"/>
</svg>
