<svg width="32" height="32" viewBox="0 0 32 32" fill="none" xmlns="http://www.w3.org/2000/svg">
<rect width="32" height="32" rx="16" fill="#0EA5E9" fill-opacity="0.1"/>
<path d="M21.332 10.666H10.6654C9.93003 10.666 9.33203 11.264 9.33203 11.9993V19.9993C9.33203 20.7347 9.93003 21.3327 10.6654 21.3327H21.332C22.0674 21.3327 22.6654 20.7347 22.6654 19.9993V11.9993C22.6654 11.264 22.0674 10.666 21.332 10.666ZM21.332 11.9993V12.34L15.9987 16.4887L10.6654 12.3407V11.9993H21.332ZM10.6654 19.9993V14.0287L15.5894 17.8587C15.7061 17.9504 15.8503 18.0002 15.9987 18.0002C16.1471 18.0002 16.2913 17.9504 16.408 17.8587L21.332 14.0287L21.3334 19.9993H10.6654Z" fill="#0369A1"/>
</svg>
