<svg width="60" height="60" viewBox="0 0 60 60" fill="none" xmlns="http://www.w3.org/2000/svg">
<path d="M33.9249 55.9502C33.3499 55.9502 32.7749 55.8502 32.2249 55.6502C30.3499 54.9502 29.1499 53.2002 29.1499 51.2002V35.0752H23.2999C21.3999 35.0752 19.7499 34.0002 18.9749 32.2752C18.1999 30.5502 18.4999 28.6002 19.7499 27.1752L38.6749 5.67516C39.9999 4.17516 42.0499 3.65016 43.9249 4.37516C45.7999 5.07516 46.9999 6.82516 46.9999 8.82516V24.9502H52.8499C54.7499 24.9502 56.3999 26.0252 57.1749 27.7502C57.9499 29.4752 57.6499 31.4252 56.3999 32.8502L37.4749 54.3502C36.5499 55.4002 35.2499 55.9502 33.9249 55.9502ZM42.1999 7.80016C41.9749 7.80016 41.6999 7.87516 41.4749 8.15016L22.5499 29.6752C22.1499 30.1252 22.2999 30.5752 22.3749 30.7502C22.4499 30.9252 22.6999 31.3502 23.2999 31.3502H31.0249C32.0499 31.3502 32.8999 32.2002 32.8999 33.2252V51.2252C32.8999 51.8502 33.3499 52.1002 33.5499 52.1752C33.7499 52.2502 34.2499 52.3752 34.6499 51.9002L53.5749 30.3752C53.9749 29.9252 53.8249 29.4752 53.7499 29.3002C53.6749 29.1252 53.4249 28.7002 52.8249 28.7002H45.0999C44.0749 28.7002 43.2249 27.8502 43.2249 26.8252V8.82516C43.2249 8.20016 42.7749 7.95016 42.5749 7.87516C42.4999 7.82516 42.3499 7.80016 42.1999 7.80016Z" fill="#0369A1"/>
<path d="M21.25 11.875H3.75C2.725 11.875 1.875 11.025 1.875 10C1.875 8.975 2.725 8.125 3.75 8.125H21.25C22.275 8.125 23.125 8.975 23.125 10C23.125 11.025 22.275 11.875 21.25 11.875Z" fill="#0369A1"/>
<path d="M18.75 51.875H3.75C2.725 51.875 1.875 51.025 1.875 50C1.875 48.975 2.725 48.125 3.75 48.125H18.75C19.775 48.125 20.625 48.975 20.625 50C20.625 51.025 19.775 51.875 18.75 51.875Z" fill="#0369A1"/>
<path d="M11.25 31.875H3.75C2.725 31.875 1.875 31.025 1.875 30C1.875 28.975 2.725 28.125 3.75 28.125H11.25C12.275 28.125 13.125 28.975 13.125 30C13.125 31.025 12.275 31.875 11.25 31.875Z" fill="#0369A1"/>
</svg>
