<svg width="60" height="60" viewBox="0 0 60 60" fill="none" xmlns="http://www.w3.org/2000/svg">
<path d="M27.3 49.375C26.575 49.375 25.875 49.275 25.3 49.05C16.75 46.125 3.125 35.675 3.125 20.225C3.125 12.3 9.52498 5.875 17.4 5.875C21.175 5.875 24.7 7.32496 27.325 9.89996C29.975 7.32496 33.475 5.875 37.25 5.875C45.125 5.875 51.525 12.3 51.525 20.225C51.525 21.3 51.45 22.4 51.3 23.525C51.225 24.1 50.875 24.625 50.375 24.925C49.875 25.225 49.25 25.25 48.7 25.025C45.625 23.7 41.8 24.7 39.8 27.375C39.45 27.85 38.775 28.1 38.3 28.125C37.7 28.125 37.15 27.85 36.8 27.375C35.375 25.475 33.2 24.4 30.85 24.4C26.775 24.4 23.45 27.75 23.45 31.875C23.45 38.375 27.175 43 30.325 45.775C30.775 46.175 31 46.75 30.95 47.35C30.9 47.95 30.575 48.475 30.05 48.8C29.775 48.95 29.55 49.05 29.425 49.075C28.775 49.275 28.05 49.375 27.3 49.375ZM17.4 9.625C11.6 9.625 6.875 14.375 6.875 20.225C6.875 33.3 17.75 41.35 24 44.45C21.625 41.275 19.675 37.075 19.675 31.85C19.675 25.65 24.675 20.625 30.825 20.625C33.625 20.625 36.25 21.65 38.275 23.475C40.8 21.225 44.4 20.2 47.75 20.825C47.75 20.625 47.75 20.425 47.75 20.25C47.75 14.4 43.025 9.64995 37.225 9.64995C33.9 9.64995 30.825 11.2 28.8 13.875C28.45 14.35 27.9 14.625 27.3 14.625C26.7 14.625 26.15 14.35 25.8 13.875C23.825 11.175 20.75 9.625 17.4 9.625Z" fill="#0369A1"/>
<path d="M38.3006 54.125C37.7256 54.125 37.1256 54.05 36.6506 53.875C34.5006 53.15 31.0256 51.375 27.8506 48.55C24.1506 45.275 19.7256 39.725 19.7256 31.85C19.7256 25.65 24.7256 20.625 30.8756 20.625C33.6756 20.625 36.3005 21.65 38.3255 23.475C41.4755 20.65 46.2755 19.85 50.2255 21.575C54.2755 23.375 56.9006 27.425 56.9006 31.875C56.9006 43.725 46.5006 51.675 39.9506 53.9C39.4506 54.05 38.8756 54.125 38.3006 54.125ZM30.8505 24.375C26.7755 24.375 23.4506 27.725 23.4506 31.85C23.4506 38.35 27.1756 42.975 30.3256 45.75C33.1006 48.2 36.0256 49.725 37.8506 50.325C38.0506 50.4 38.5256 50.4 38.7006 50.325C42.4506 49.05 53.1255 42.925 53.1255 31.85C53.1255 28.875 51.3756 26.175 48.7006 25C45.6756 23.675 41.8006 24.675 39.8006 27.35C39.4506 27.825 38.7756 28.075 38.3006 28.1C37.7006 28.1 37.1506 27.825 36.8006 27.35C35.3756 25.45 33.2005 24.375 30.8505 24.375Z" fill="#0369A1"/>
</svg>
