<svg width="60" height="60" viewBox="0 0 60 60" fill="none" xmlns="http://www.w3.org/2000/svg">
<path d="M44.9998 19.7754C44.9248 19.7754 44.8748 19.7754 44.7998 19.7754H44.6748C39.9498 19.6254 36.4248 15.9754 36.4248 11.4754C36.4248 6.8754 40.1748 3.15039 44.7498 3.15039C49.3248 3.15039 53.0748 6.9004 53.0748 11.4754C53.0498 16.0004 49.5248 19.6504 45.0248 19.8004C45.0248 19.7754 45.0248 19.7754 44.9998 19.7754ZM44.7498 6.8754C42.2248 6.8754 40.1748 8.92541 40.1748 11.4504C40.1748 13.9254 42.0998 15.9254 44.5748 16.0254C44.5998 16.0004 44.7998 16.0004 45.0248 16.0254C47.4498 15.9004 49.3248 13.9004 49.3498 11.4504C49.3498 8.92541 47.2998 6.8754 44.7498 6.8754Z" fill="#0369A1"/>
<path d="M45.0252 38.1996C44.0502 38.1996 43.0752 38.1246 42.1002 37.9496C41.0752 37.7746 40.4002 36.7996 40.5752 35.7746C40.7502 34.7496 41.7252 34.0746 42.7502 34.2496C45.8252 34.7746 49.0752 34.1997 51.2502 32.7497C52.4252 31.9747 53.0503 30.9996 53.0503 30.0246C53.0503 29.0496 52.4002 28.0996 51.2502 27.3246C49.0752 25.8746 45.7752 25.2996 42.6752 25.8496C41.6502 26.0496 40.6753 25.3496 40.5003 24.3246C40.3253 23.2996 41.0003 22.3246 42.0253 22.1496C46.1003 21.4246 50.3253 22.1996 53.3253 24.1996C55.5253 25.6746 56.8003 27.7746 56.8003 30.0246C56.8003 32.2496 55.5503 34.3747 53.3253 35.8747C51.0503 37.3747 48.1002 38.1996 45.0252 38.1996Z" fill="#0369A1"/>
<path d="M14.9252 19.775C14.9002 19.775 14.8752 19.775 14.8752 19.775C10.3752 19.625 6.8502 15.975 6.8252 11.475C6.8252 6.87499 10.5752 3.125 15.1502 3.125C19.7252 3.125 23.4752 6.875 23.4752 11.45C23.4752 15.975 19.9502 19.625 15.4502 19.775L14.9252 17.9L15.1002 19.775C15.0502 19.775 14.9752 19.775 14.9252 19.775ZM15.1752 16.025C15.3252 16.025 15.4502 16.025 15.6002 16.05C17.8252 15.95 19.7752 13.95 19.7752 11.475C19.7752 8.94999 17.7252 6.89999 15.2002 6.89999C12.6752 6.89999 10.6252 8.94999 10.6252 11.475C10.6252 13.925 12.5252 15.9 14.9502 16.05C14.9752 16.025 15.0752 16.025 15.1752 16.025Z" fill="#0369A1"/>
<path d="M14.9 38.1996C11.825 38.1996 8.875 37.3747 6.6 35.8747C4.4 34.3997 3.125 32.2746 3.125 30.0246C3.125 27.7996 4.4 25.6746 6.6 24.1996C9.6 22.1996 13.825 21.4246 17.9 22.1496C18.925 22.3246 19.6 23.2996 19.425 24.3246C19.25 25.3496 18.275 26.0496 17.25 25.8496C14.15 25.2996 10.875 25.8746 8.675 27.3246C7.5 28.0996 6.875 29.0496 6.875 30.0246C6.875 30.9996 7.525 31.9747 8.675 32.7497C10.85 34.1997 14.1 34.7746 17.175 34.2496C18.2 34.0746 19.175 34.7746 19.35 35.7746C19.525 36.7996 18.85 37.7746 17.825 37.9496C16.85 38.1246 15.875 38.1996 14.9 38.1996Z" fill="#0369A1"/>
<path d="M29.9998 38.4502C29.9248 38.4502 29.8748 38.4502 29.7998 38.4502H29.6748C24.9498 38.3002 21.4248 34.6502 21.4248 30.1502C21.4248 25.5502 25.1748 21.8252 29.7498 21.8252C34.3248 21.8252 38.0748 25.5752 38.0748 30.1502C38.0498 34.6752 34.5248 38.3252 30.0248 38.4752C30.0248 38.4502 30.0248 38.4502 29.9998 38.4502ZM29.7498 25.5502C27.2248 25.5502 25.1748 27.6002 25.1748 30.1252C25.1748 32.6002 27.0998 34.6002 29.5748 34.7002C29.5998 34.6752 29.7998 34.6752 30.0248 34.7002C32.4498 34.5752 34.3248 32.5752 34.3498 30.1252C34.3498 27.6252 32.2998 25.5502 29.7498 25.5502Z" fill="#0369A1"/>
<path d="M29.9992 56.8998C26.9992 56.8998 23.9992 56.1248 21.6742 54.5498C19.4742 53.0748 18.1992 50.9748 18.1992 48.7248C18.1992 46.4998 19.4492 44.3498 21.6742 42.8748C26.3492 39.7748 33.6742 39.7748 38.3242 42.8748C40.5242 44.3498 41.7992 46.4498 41.7992 48.6998C41.7992 50.9248 40.5492 53.0748 38.3242 54.5498C35.9992 56.0998 32.9992 56.8998 29.9992 56.8998ZM23.7492 46.0248C22.5742 46.7998 21.9492 47.7748 21.9492 48.7498C21.9492 49.7248 22.5992 50.6748 23.7492 51.4498C27.1242 53.7248 32.8492 53.7248 36.2242 51.4498C37.3992 50.6748 38.0242 49.6998 38.0242 48.7248C38.0242 47.7498 37.3742 46.7998 36.2242 46.0248C32.8742 43.7498 27.1492 43.7748 23.7492 46.0248Z" fill="#0369A1"/>
</svg>
