<svg width="32" height="32" viewBox="0 0 32 32" fill="none" xmlns="http://www.w3.org/2000/svg">
<rect width="32" height="32" rx="16" fill="#0EA5E9" fill-opacity="0.1"/>
<path d="M19.8042 16.1951C19.7424 16.1332 19.6689 16.084 19.588 16.0505C19.5072 16.0169 19.4205 15.9997 19.3329 15.9997C19.2453 15.9997 19.1587 16.0169 19.0778 16.0505C18.9969 16.084 18.9234 16.1332 18.8616 16.1951L17.7989 17.2578C17.3062 17.1111 16.3869 16.7778 15.8042 16.1951C15.2216 15.6125 14.8882 14.6931 14.7416 14.2005L15.8042 13.1378C15.8662 13.076 15.9154 13.0025 15.9489 12.9216C15.9824 12.8407 15.9997 12.754 15.9997 12.6665C15.9997 12.5789 15.9824 12.4922 15.9489 12.4113C15.9154 12.3305 15.8662 12.257 15.8042 12.1951L13.1376 9.52848C13.0757 9.46651 13.0022 9.41735 12.9214 9.38381C12.8405 9.35027 12.7538 9.33301 12.6662 9.33301C12.5787 9.33301 12.492 9.35027 12.4111 9.38381C12.3302 9.41735 12.2568 9.46651 12.1949 9.52848L10.3869 11.3365C10.1336 11.5898 9.9909 11.9378 9.99624 12.2931C10.0116 13.2425 10.2629 16.5398 12.8616 19.1385C15.4602 21.7371 18.7576 21.9878 19.7076 22.0038H19.7262C20.0782 22.0038 20.4109 21.8651 20.6629 21.6131L22.4709 19.8051C22.5329 19.7433 22.582 19.6698 22.6156 19.5889C22.6491 19.5081 22.6664 19.4214 22.6664 19.3338C22.6664 19.2463 22.6491 19.1596 22.6156 19.0787C22.582 18.9978 22.5329 18.9243 22.4709 18.8625L19.8042 16.1951ZM19.7196 20.6698C18.8876 20.6558 16.0409 20.4325 13.8042 18.1951C11.5602 15.9511 11.3429 13.0945 11.3296 12.2791L12.6662 10.9425L14.3902 12.6665L13.5282 13.5285C13.4499 13.6068 13.3923 13.7034 13.3606 13.8095C13.3289 13.9157 13.3242 14.028 13.3469 14.1365C13.3629 14.2131 13.7542 16.0311 14.8609 17.1378C15.9676 18.2445 17.7856 18.6358 17.8622 18.6518C17.9706 18.6751 18.0831 18.6708 18.1893 18.6392C18.2956 18.6076 18.3922 18.5498 18.4702 18.4711L19.3329 17.6091L21.0569 19.3331L19.7196 20.6698Z" fill="#0369A1"/>
</svg>
