<svg width="60" height="60" viewBox="0 0 60 60" fill="none" xmlns="http://www.w3.org/2000/svg">
<path d="M22.8994 29.05C22.8244 29.05 22.7744 29.05 22.6994 29.05C22.5744 29.025 22.3994 29.025 22.2494 29.05C14.9994 28.825 9.52441 23.125 9.52441 16.1C9.52441 8.95 15.3494 3.125 22.4994 3.125C29.6494 3.125 35.4744 8.95 35.4744 16.1C35.4494 23.125 29.9494 28.825 22.9744 29.05C22.9494 29.05 22.9244 29.05 22.8994 29.05ZM22.4994 6.875C17.4244 6.875 13.2744 11.025 13.2744 16.1C13.2744 21.1 17.1744 25.125 22.1494 25.3C22.2994 25.275 22.6244 25.275 22.9494 25.3C27.8494 25.075 31.6994 21.05 31.7244 16.1C31.7244 11.025 27.5744 6.875 22.4994 6.875Z" fill="#0369A1"/>
<path d="M41.3489 29.375C41.2739 29.375 41.1989 29.375 41.1239 29.35C40.0989 29.45 39.0489 28.725 38.9489 27.7C38.8489 26.675 39.4739 25.75 40.4989 25.625C40.7989 25.6 41.1239 25.6 41.3989 25.6C45.0489 25.4 47.8989 22.4 47.8989 18.725C47.8989 14.925 44.8239 11.85 41.0239 11.85C39.9989 11.875 39.1489 11.025 39.1489 10C39.1489 8.975 39.9989 8.125 41.0239 8.125C46.8739 8.125 51.6489 12.9 51.6489 18.75C51.6489 24.5 47.1489 29.15 41.4239 29.375C41.3989 29.375 41.3739 29.375 41.3489 29.375Z" fill="#0369A1"/>
<path d="M22.924 56.375C18.024 56.375 13.099 55.125 9.37402 52.625C5.89902 50.325 3.99902 47.175 3.99902 43.75C3.99902 40.325 5.89902 37.15 9.37402 34.825C16.874 29.85 29.024 29.85 36.474 34.825C39.924 37.125 41.849 40.275 41.849 43.7C41.849 47.125 39.949 50.3 36.474 52.625C32.724 55.125 27.824 56.375 22.924 56.375ZM11.449 37.975C9.04902 39.575 7.74902 41.625 7.74902 43.775C7.74902 45.9 9.07402 47.95 11.449 49.525C17.674 53.7 28.174 53.7 34.399 49.525C36.799 47.925 38.099 45.875 38.099 43.725C38.099 41.6 36.774 39.55 34.399 37.975C28.174 33.825 17.674 33.825 11.449 37.975Z" fill="#0369A1"/>
<path d="M45.8494 51.875C44.9744 51.875 44.1994 51.275 44.0244 50.375C43.8244 49.35 44.4744 48.375 45.4744 48.15C47.0494 47.825 48.4994 47.2 49.6244 46.325C51.0494 45.25 51.8244 43.9 51.8244 42.475C51.8244 41.05 51.0494 39.7 49.6494 38.65C48.5494 37.8 47.1744 37.2 45.5494 36.825C44.5494 36.6 43.8994 35.6 44.1244 34.575C44.3494 33.575 45.3494 32.925 46.3744 33.15C48.5244 33.625 50.3994 34.475 51.9244 35.65C54.2494 37.4 55.5744 39.875 55.5744 42.475C55.5744 45.075 54.2244 47.55 51.8994 49.325C50.3494 50.525 48.3994 51.4 46.2494 51.825C46.0994 51.875 45.9744 51.875 45.8494 51.875Z" fill="#0369A1"/>
</svg>
