<svg width="60" height="60" viewBox="0 0 60 60" fill="none" xmlns="http://www.w3.org/2000/svg">
<path d="M46.25 50.625H36.25C35.225 50.625 34.375 49.775 34.375 48.75C34.375 47.725 35.225 46.875 36.25 46.875H46.25C47.275 46.875 48.125 47.725 48.125 48.75C48.125 49.775 47.275 50.625 46.25 50.625Z" fill="#0369A1"/>
<path d="M41.25 55.625C40.225 55.625 39.375 54.775 39.375 53.75V43.75C39.375 42.725 40.225 41.875 41.25 41.875C42.275 41.875 43.125 42.725 43.125 43.75V53.75C43.125 54.775 42.275 55.625 41.25 55.625Z" fill="#0369A1"/>
<path d="M30.4007 29.05C30.3257 29.05 30.2757 29.05 30.2007 29.05C30.0757 29.025 29.9007 29.025 29.7507 29.05C22.5007 28.825 17.0257 23.125 17.0257 16.1C17.0007 12.65 18.3507 9.4 20.8007 6.95C23.2507 4.5 26.5007 3.125 29.9757 3.125C37.1257 3.125 42.9507 8.95 42.9507 16.1C42.9507 23.125 37.4757 28.8 30.4757 29.05C30.4507 29.05 30.4257 29.05 30.4007 29.05ZM29.9757 6.875C27.5007 6.875 25.2007 7.85 23.4507 9.575C21.7257 11.325 20.7757 13.625 20.7757 16.075C20.7757 21.075 24.6757 25.125 29.6507 25.275C29.8007 25.25 30.1257 25.25 30.4507 25.275C35.3757 25.05 39.2007 21.025 39.2007 16.075C39.2007 11.025 35.0507 6.875 29.9757 6.875Z" fill="#0369A1"/>
<path d="M29.9754 56.4002C24.8754 56.4002 20.0504 55.0752 16.4004 52.6252C12.9254 50.3002 11.0254 47.1252 11.0254 43.7002C11.0254 40.2752 12.9504 37.1252 16.4004 34.8252C23.8754 29.8252 36.0254 29.8252 43.5004 34.8252C44.3504 35.4002 44.6004 36.5752 44.0254 37.4252C43.4504 38.3002 42.2754 38.5252 41.4254 37.9502C35.2004 33.8002 24.7004 33.8002 18.4754 37.9502C16.0754 39.5502 14.7754 41.5752 14.7754 43.7002C14.7754 45.8252 16.0754 47.9002 18.4754 49.5002C21.5004 51.5252 25.5754 52.6252 29.9504 52.6252C30.9754 52.6252 31.8254 53.4752 31.8254 54.5002C31.8254 55.5252 31.0004 56.4002 29.9754 56.4002Z" fill="#0369A1"/>
</svg>
