<svg width="60" height="60" viewBox="0 0 60 60" fill="none" xmlns="http://www.w3.org/2000/svg">
<path d="M29.9996 56.875C29.3996 56.875 28.7996 56.8001 28.2246 56.6251C15.2496 53.0501 5.84961 40.925 5.84961 27.775V16.7999C5.84961 13.9999 7.87462 10.9751 10.4746 9.90007L24.3996 4.2C28.0246 2.725 31.9996 2.725 35.5996 4.2L49.5246 9.90007C52.1246 10.9751 54.1496 13.9999 54.1496 16.7999V27.775C54.1496 40.9 44.7246 53.0251 31.7746 56.6251C31.1996 56.8001 30.5996 56.875 29.9996 56.875ZM29.9996 6.87502C28.5746 6.87502 27.1746 7.15006 25.8246 7.70006L11.8996 13.4C10.6996 13.9 9.59961 15.525 9.59961 16.825V27.8C9.59961 39.275 17.8496 49.8751 29.2246 53.0251C29.7246 53.1751 30.2746 53.1751 30.7746 53.0251C42.1496 49.8751 50.3996 39.275 50.3996 27.8V16.825C50.3996 15.525 49.2996 13.9 48.0996 13.4L34.1747 7.70006C32.8247 7.15006 31.4246 6.87502 29.9996 6.87502Z" fill="#0369A1"/>
</svg>
