<svg width="60" height="60" viewBox="0 0 60 60" fill="none" xmlns="http://www.w3.org/2000/svg">
<path d="M30 48.125C20 48.125 11.875 40 11.875 30C11.875 20 20 11.875 30 11.875C40 11.875 48.125 20 48.125 30C48.125 40 40 48.125 30 48.125ZM30 15.625C22.075 15.625 15.625 22.075 15.625 30C15.625 37.925 22.075 44.375 30 44.375C37.925 44.375 44.375 37.925 44.375 30C44.375 22.075 37.925 15.625 30 15.625Z" fill="#0369A1"/>
<path d="M30 57.4C28.625 57.4 27.5 56.375 27.5 55V54.8C27.5 53.425 28.625 52.3 30 52.3C31.375 52.3 32.5 53.425 32.5 54.8C32.5 56.175 31.375 57.4 30 57.4ZM47.85 50.35C47.2 50.35 46.575 50.1 46.075 49.625L45.75 49.3C44.775 48.325 44.775 46.75 45.75 45.775C46.725 44.8 48.3 44.8 49.275 45.775L49.6 46.1C50.575 47.075 50.575 48.65 49.6 49.625C49.125 50.1 48.5 50.35 47.85 50.35ZM12.15 50.35C11.5 50.35 10.875 50.1 10.375 49.625C9.4 48.65 9.4 47.075 10.375 46.1L10.7 45.775C11.675 44.8 13.25 44.8 14.225 45.775C15.2 46.75 15.2 48.325 14.225 49.3L13.9 49.625C13.425 50.1 12.775 50.35 12.15 50.35ZM55 32.5H54.8C53.425 32.5 52.3 31.375 52.3 30C52.3 28.625 53.425 27.5 54.8 27.5C56.175 27.5 57.4 28.625 57.4 30C57.4 31.375 56.375 32.5 55 32.5ZM5.2 32.5H5C3.625 32.5 2.5 31.375 2.5 30C2.5 28.625 3.625 27.5 5 27.5C6.375 27.5 7.6 28.625 7.6 30C7.6 31.375 6.575 32.5 5.2 32.5ZM47.525 14.975C46.875 14.975 46.25 14.725 45.75 14.25C44.775 13.275 44.775 11.7 45.75 10.725L46.075 10.4C47.05 9.425 48.625 9.425 49.6 10.4C50.575 11.375 50.575 12.95 49.6 13.925L49.275 14.25C48.8 14.725 48.175 14.975 47.525 14.975ZM12.475 14.975C11.825 14.975 11.2 14.725 10.7 14.25L10.375 13.9C9.4 12.925 9.4 11.35 10.375 10.375C11.35 9.4 12.925 9.4 13.9 10.375L14.225 10.7C15.2 11.675 15.2 13.25 14.225 14.225C13.75 14.725 13.1 14.975 12.475 14.975ZM30 7.6C28.625 7.6 27.5 6.575 27.5 5.2V5C27.5 3.625 28.625 2.5 30 2.5C31.375 2.5 32.5 3.625 32.5 5C32.5 6.375 31.375 7.6 30 7.6Z" fill="#0369A1"/>
</svg>
