<svg width="60" height="60" viewBox="0 0 60 60" fill="none" xmlns="http://www.w3.org/2000/svg">
<path d="M30.0248 42.5002C27.8998 42.5002 25.7498 41.9502 24.0748 40.8752L9.0248 31.0502C6.2248 29.2252 4.5498 26.1502 4.5498 22.8002C4.5498 19.4502 6.2248 16.3752 9.0248 14.5502L24.0998 4.75021C27.4498 2.57521 32.6748 2.57521 35.9998 4.77521L50.9748 14.6002C53.7498 16.4252 55.4248 19.5002 55.4248 22.8252C55.4248 26.1502 53.7498 29.2252 50.9748 31.0502L35.9998 40.8752C34.3248 41.9752 32.1748 42.5002 30.0248 42.5002ZM30.0248 6.87521C28.5998 6.87521 27.1748 7.20021 26.1498 7.90021L11.0998 17.7002C9.3498 18.8502 8.3248 20.7002 8.3248 22.8002C8.3248 24.9002 9.3248 26.7502 11.0998 27.9002L26.1498 37.7252C28.2248 39.0752 31.8748 39.0752 33.9498 37.7252L48.9248 27.9002C50.6748 26.7502 51.6748 24.9002 51.6748 22.8002C51.6748 20.7002 50.6748 18.8502 48.9248 17.7002L33.9498 7.87521C32.8998 7.22521 31.4748 6.87521 30.0248 6.87521Z" fill="#0369A1"/>
<path d="M30 56.8752C28.9 56.8752 27.775 56.7252 26.875 56.4252L18.9 53.7752C15.125 52.5252 12.15 48.4002 12.175 44.4252L12.2 32.7002C12.2 31.6752 13.05 30.8252 14.075 30.8252C15.1 30.8252 15.95 31.6752 15.95 32.7002L15.925 44.4252C15.925 46.7752 17.875 49.4752 20.1 50.2252L28.075 52.8752C29.075 53.2002 30.925 53.2002 31.925 52.8752L39.9 50.2252C42.125 49.4752 44.075 46.7752 44.075 44.4502V32.8502C44.075 31.8252 44.925 30.9752 45.95 30.9752C46.975 30.9752 47.825 31.8252 47.825 32.8502V44.4502C47.825 48.4252 44.875 52.5252 41.1 53.8002L33.125 56.4502C32.225 56.7252 31.1 56.8752 30 56.8752Z" fill="#0369A1"/>
<path d="M53.5 39.375C52.475 39.375 51.625 38.525 51.625 37.5V22.5C51.625 21.475 52.475 20.625 53.5 20.625C54.525 20.625 55.375 21.475 55.375 22.5V37.5C55.375 38.525 54.525 39.375 53.5 39.375Z" fill="#0369A1"/>
</svg>
