<svg width="70" height="70" viewBox="0 0 70 70" fill="none" xmlns="http://www.w3.org/2000/svg">
<path d="M34.9993 66.3542C19.716 66.3542 7.29102 53.9292 7.29102 38.6458C7.29102 23.3625 19.716 10.9375 34.9993 10.9375C50.2827 10.9375 62.7077 23.3625 62.7077 38.6458C62.7077 53.9292 50.2827 66.3542 34.9993 66.3542ZM34.9993 15.3125C22.1368 15.3125 11.666 25.7833 11.666 38.6458C11.666 51.5083 22.1368 61.9792 34.9993 61.9792C47.8619 61.9792 58.3327 51.5083 58.3327 38.6458C58.3327 25.7833 47.8619 15.3125 34.9993 15.3125Z" fill="#E8EAF0"/>
<path d="M35 40.1038C33.8042 40.1038 32.8125 39.1122 32.8125 37.9163V23.333C32.8125 22.1372 33.8042 21.1455 35 21.1455C36.1958 21.1455 37.1875 22.1372 37.1875 23.333V37.9163C37.1875 39.1122 36.1958 40.1038 35 40.1038Z" fill="#E8EAF0"/>
<path d="M43.75 8.02051H26.25C25.0542 8.02051 24.0625 7.02884 24.0625 5.83301C24.0625 4.63717 25.0542 3.64551 26.25 3.64551H43.75C44.9458 3.64551 45.9375 4.63717 45.9375 5.83301C45.9375 7.02884 44.9458 8.02051 43.75 8.02051Z" fill="#E8EAF0"/>
</svg>
