<svg width="60" height="60" viewBox="0 0 60 60" fill="none" xmlns="http://www.w3.org/2000/svg">
<path d="M40.4256 27.0246H19.5756C17.4256 27.0246 15.7756 26.1746 15.0256 24.7246C14.2756 23.2496 14.5756 21.4246 15.8256 19.6996L26.2506 5.09962C28.1006 2.44962 31.9256 2.44962 33.8006 5.12462L44.2256 19.6996C45.4756 21.4246 45.7756 23.2496 45.0256 24.7246C44.2256 26.1746 42.5756 27.0246 40.4256 27.0246ZM30.0006 6.74961C29.7756 6.74961 29.5256 6.94962 29.3006 7.24962L18.8756 21.8746C18.3756 22.5496 18.3506 22.9496 18.3756 23.0246C18.4006 23.0746 18.7506 23.2746 19.6006 23.2746H40.4506C41.2756 23.2746 41.6256 23.0496 41.6756 22.9996C41.6756 22.9496 41.6506 22.5496 41.1756 21.8746L30.7506 7.27462C30.4756 6.92462 30.2256 6.74961 30.0006 6.74961Z" fill="#0369A1"/>
<path d="M43.9751 46.8754H16.0502C12.4752 46.8754 11.0501 45.1504 10.5251 44.1254C10.0001 43.1004 9.45013 40.9504 11.5501 38.0504L21.5251 24.0504C21.8751 23.5504 22.4501 23.2754 23.0501 23.2754H36.9752C37.5752 23.2754 38.1501 23.5754 38.5001 24.0504L48.4752 38.0754C50.5752 40.9504 50.0002 43.1004 49.4752 44.1254C48.9502 45.1504 47.5501 46.8754 43.9751 46.8754ZM24.0002 27.0254L14.5751 40.2504C13.7751 41.3504 13.7002 42.1004 13.8502 42.4254C14.0252 42.7504 14.6751 43.1254 16.0251 43.1254H43.9501C45.3001 43.1254 45.9752 42.7504 46.1252 42.4254C46.3002 42.1004 46.2001 41.3504 45.4002 40.2504L35.9752 27.0004H24.0002V27.0254Z" fill="#0369A1"/>
<path d="M30 56.875C28.975 56.875 28.125 56.025 28.125 55V45C28.125 43.975 28.975 43.125 30 43.125C31.025 43.125 31.875 43.975 31.875 45V55C31.875 56.025 31.025 56.875 30 56.875Z" fill="#0369A1"/>
</svg>
